<svg width="337" height="91" viewBox="0 0 337 91" fill="none" xmlns="http://www.w3.org/2000/svg">
<path d="M0 11.375H321.523V91H0V44.2812V11.375Z" fill="#BF1EDA"/>
<rect x="15" width="322" height="75" fill="#F6EFEF"/>
<path d="M94.5975 51H86.7975L77.4975 24.6H85.3575L90.6975 42.04L96.0575 24.6H103.898L94.5975 51ZM106.612 24.6H123.952V30.66H113.572V34.84H123.912V40.7H113.572V44.94H123.952V51H106.612V24.6ZM127.975 24.6H139.335C140.909 24.6 142.302 24.9333 143.515 25.6C144.729 26.2533 145.682 27.1933 146.375 28.42C147.082 29.6467 147.435 31.1067 147.435 32.8C147.435 34.48 147.149 35.8467 146.575 36.9C146.002 37.9533 145.315 38.74 144.515 39.26C143.715 39.78 142.982 40.1067 142.315 40.24L148.675 51H140.855L135.295 40.78H134.955V51H127.975V24.6ZM134.955 36.02H136.835C137.702 36.02 138.489 35.8133 139.195 35.4C139.915 34.9867 140.275 34.1933 140.275 33.02C140.275 31.86 139.922 31.0733 139.215 30.66C138.522 30.2467 137.749 30.04 136.895 30.04H134.955V36.02ZM183.253 51.6C184 51.6 184.68 51.5067 185.293 51.32C185.92 51.1467 186.427 50.96 186.813 50.76C187.213 50.56 187.44 50.42 187.493 50.34L189.753 54.84C189.327 55.6 188.553 56.3067 187.433 56.96C186.327 57.6267 184.953 57.96 183.313 57.96C182.313 57.96 181.467 57.84 180.773 57.6C180.08 57.3733 179.433 57.1 178.833 56.78C178.233 56.4733 177.58 56.2 176.873 55.96C176.167 55.7333 175.287 55.62 174.233 55.62C173.407 55.62 172.687 55.7333 172.073 55.96C171.46 56.2 170.98 56.44 170.633 56.68C170.3 56.92 170.113 57.0667 170.073 57.12L167.333 53.84C168.147 52.8533 169.287 52.0333 170.753 51.38C172.22 50.7267 173.88 50.4 175.733 50.4C176.867 50.4 177.84 50.5 178.653 50.7C179.467 50.9 180.227 51.1 180.933 51.3C181.653 51.5 182.427 51.6 183.253 51.6ZM169.813 37.78C169.813 39.1133 170.08 40.3267 170.613 41.42C171.16 42.5 171.92 43.36 172.893 44C173.867 44.64 175 44.96 176.293 44.96C177.587 44.96 178.72 44.64 179.693 44C180.667 43.36 181.42 42.5 181.953 41.42C182.5 40.3267 182.773 39.1133 182.773 37.78C182.773 36.4467 182.5 35.24 181.953 34.16C181.42 33.08 180.667 32.22 179.693 31.58C178.72 30.9267 177.587 30.6 176.293 30.6C175 30.6 173.867 30.9267 172.893 31.58C171.92 32.22 171.16 33.08 170.613 34.16C170.08 35.24 169.813 36.4467 169.813 37.78ZM162.553 37.78C162.553 35.86 162.9 34.0733 163.593 32.42C164.287 30.7533 165.253 29.3 166.493 28.06C167.733 26.82 169.187 25.8533 170.853 25.16C172.533 24.4667 174.347 24.12 176.293 24.12C178.267 24.12 180.087 24.4667 181.753 25.16C183.42 25.8533 184.873 26.82 186.113 28.06C187.353 29.3 188.313 30.7533 188.993 32.42C189.673 34.0733 190.013 35.86 190.013 37.78C190.013 39.7133 189.68 41.5133 189.013 43.18C188.347 44.8333 187.4 46.2867 186.173 47.54C184.96 48.78 183.513 49.7467 181.833 50.44C180.153 51.1333 178.307 51.48 176.293 51.48C174.213 51.48 172.333 51.1333 170.653 50.44C168.973 49.7467 167.527 48.78 166.313 47.54C165.113 46.2867 164.187 44.8333 163.533 43.18C162.88 41.5133 162.553 39.7133 162.553 37.78ZM207.545 24.6H214.485V40.76C214.485 42.9333 214.065 44.82 213.225 46.42C212.385 48.02 211.158 49.2667 209.545 50.16C207.931 51.04 205.971 51.48 203.665 51.48C201.358 51.48 199.391 51.04 197.765 50.16C196.138 49.2667 194.898 48.02 194.045 46.42C193.205 44.82 192.785 42.9333 192.785 40.76V24.6H199.745V40.38C199.745 41.46 199.891 42.3533 200.185 43.06C200.491 43.7667 200.938 44.3 201.525 44.66C202.111 45.0067 202.825 45.18 203.665 45.18C204.491 45.18 205.191 45.0067 205.765 44.66C206.338 44.3 206.778 43.7667 207.085 43.06C207.391 42.3533 207.545 41.46 207.545 40.38V24.6ZM218.648 24.6H225.608V51H218.648V24.6ZM230.215 24.6H252.875L240.455 44.94H252.015V51H228.355L240.735 30.66H230.215V24.6Z" fill="black"/>
</svg>
